<svg xmlns="http://www.w3.org/2000/svg">
  <symbol id="home" viewBox="0 0 24 24">
    <path fill="currentColor" d="M4 21V9l8-6 8 6v12h-6v-7h-4v7z"/>
  </symbol>
  <symbol id="profile" viewBox="0 0 28 28">
    <path fill="currentColor" d="M5.8 20.8a13.9 13.9 0 0 1 3.8-2.05C11 18.252 12.467 18 14 18c1.533 0 3 .25 4.4.75 1.4.501 2.667 1.184 3.8 2.05a10.317 10.317 0 0 0 1.817-3.1 10.42 10.42 0 0 0 .65-3.7c0-2.956-1.039-5.472-3.116-7.55C19.473 4.37 16.956 3.331 14 3.332c-2.957 0-5.473 1.04-7.552 3.118C4.371 8.529 3.333 11.045 3.333 14c0 1.311.217 2.544.651 3.7A10.332 10.332 0 0 0 5.8 20.8zm8.2-5.467c-1.311 0-2.417-.45-3.317-1.349-.9-.9-1.35-2.005-1.35-3.317 0-1.311.45-2.417 1.351-3.318C11.584 6.45 12.69 6 14 6c1.311 0 2.417.45 3.317 1.35.9.901 1.35 2.006 1.35 3.317 0 1.31-.45 2.417-1.35 3.317-.9.9-2.005 1.35-3.317 1.35zm0 12c-1.844 0-3.578-.35-5.2-1.05a13.487 13.487 0 0 1-4.233-2.85c-1.2-1.2-2.15-2.61-2.85-4.233-.7-1.622-1.05-3.356-1.05-5.2 0-1.845.35-3.578 1.05-5.2.7-1.622 1.65-3.033 2.85-4.233 1.2-1.2 2.61-2.15 4.233-2.85 1.622-.7 3.356-1.05 5.2-1.05 1.845 0 3.578.35 5.2 1.05 1.622.7 3.033 1.65 4.233 2.85 1.2 1.2 2.15 2.61 2.851 4.233.7 1.622 1.05 3.355 1.05 5.2 0 1.844-.35 3.578-1.051 5.2a13.485 13.485 0 0 1-2.85 4.233c-1.2 1.2-2.61 2.15-4.233 2.851-1.622.7-3.355 1.05-5.2 1.05z"/></symbol>
  <symbol id="search" viewBox="0 0 24 24">
    <path fill="currentColor" d="M19.6 21l-6.3-6.3q-.75.6-1.725.95T9.5 16q-2.725 0-4.612-1.888T3 9.5t1.888-4.612T9.5 3t4.613 1.888T16 9.5q0 1.1-.35 2.075T14.7 13.3l6.3 6.3zM9.5 14q1.875 0 3.188-1.312T14 9.5t-1.312-3.187T9.5 5 6.313 6.313 5 9.5t1.313 3.188T9.5 14"/>
  </symbol>
  <symbol id="thread" viewBox="0 0 24 24">
    <path fill="currentColor" d="M20 2H4c-1.1 0-1.99.9-1.99 2L2 22l4-4h14c1.1 0 2-.9 2-2V4c0-1.1-.9-2-2-2M7 9h10c.55 0 1 .45 1 1s-.45 1-1 1H7c-.55 0-1-.45-1-1s.45-1 1-1m6 5H7c-.55 0-1-.45-1-1s.45-1 1-1h6c.55 0 1 .45 1 1s-.45 1-1 1m4-6H7c-.55 0-1-.45-1-1s.45-1 1-1h10c.55 0 1 .45 1 1s-.45 1-1 1"/>
  </symbol>
  <symbol id="recorder" viewBox="0 0 24 24">
    <path fill="currentColor" d="M2.5 15q-.625 0-1.062-.438Q1 14.125 1 13.5v-3q0-.625.438-1.062Q1.875 9 2.5 9t1.062.438Q4 9.875 4 10.5v3q0 .625-.438 1.062Q3.125 15 2.5 15zm14 0q-.625 0-1.062-.438Q15 14.125 15 13.5v-3q0-.625.438-1.062Q15.875 9 16.5 9t1.062.438Q18 9.875 18 10.5v3q0 .625-.438 1.062Q17.125 15 16.5 15zm5 4q-.625 0-1.062-.438Q20 18.125 20 17.5v-11q0-.625.438-1.062Q20.875 5 21.5 5t1.062.438Q23 5.875 23 6.5v11q0 .625-.438 1.062Q22.125 19 21.5 19zM12 17q-.625 0-1.062-.438-.438-.437-.438-1.062v-7q0-.625.438-1.062Q11.375 7 12 7t1.062.438q.438.437.438 1.062v7q0 .625-.438 1.062Q12.625 17 12 17zm-4.5 5q-.625 0-1.062-.438Q6 21.125 6 20.5v-17q0-.625.438-1.062Q6.875 2 7.5 2t1.062.438Q9 2.875 9 3.5v17q0 .625-.438 1.062Q8.125 22 7.5 22z"/>
  </symbol>
</svg>