<svg xmlns="http://www.w3.org/2000/svg"><symbol id="school" viewBox="0 0 15 15"><path fill="none" stroke="currentColor" d="M7.5 4.5l4 2v8h-8v-8zm0 0V0M0 14.5h15m-13.5 0v-6h2m10 6v-6h-2m-5 6v-3h2v3m-1-14h3v2h-3m0 7a1 1 0 1 1 0-2 1 1 0 0 1 0 2z"/></symbol><symbol id="portal" viewBox="0 0 24 24"><path fill="currentColor" d="M20.95 22.375L18 19.425v2.225h-2V16h5.65v2H19.4l2.95 2.95zM12 22q-2.075 0-3.9-.788t-3.175-2.137T2.788 15.9 2 12t.788-3.9 2.137-3.175T8.1 2.788 12 2t3.9.788 3.175 2.137T21.213 8.1 22 12q0 .5-.05 1t-.15 1h-2.05q.125-.5.188-1T20 12t-.062-1-.188-1h-3.4q.075.5.113 1t.037 1-.037 1-.113 1h-2q.075-.5.113-1t.037-1-.037-1-.113-1h-4.7q-.075.5-.112 1T9.5 12t.038 1 .112 1H13v2h-2.9q.3 1.075.775 2.063T12 19.95q.5 0 1-.062t1-.113v2.05q-.5.05-1 .113T12 22m-7.75-8h3.4q-.075-.5-.112-1T7.5 12t.038-1 .112-1h-3.4q-.125.5-.187 1T4 12t.063 1 .187 1m.85-6h2.95q.225-.925.563-1.812T9.4 4.45q-1.375.45-2.475 1.363T5.1 8m4.3 11.55q-.45-.85-.788-1.737T8.05 16H5.1q.725 1.275 1.825 2.188T9.4 19.55M10.1 8h3.8q-.3-1.075-.775-2.062T12 4.05q-.65.9-1.125 1.888T10.1 8m5.85 0h2.95q-.725-1.275-1.825-2.187T14.6 4.45q.45.85.788 1.738T15.95 8"/></symbol><symbol id="calendar" viewBox="0 0 24 24"><path fill="currentColor" d="M5 22q-.825 0-1.412-.587T3 20V6q0-.825.588-1.412T5 4h1V2h2v2h8V2h2v2h1q.825 0 1.413.588T21 6v14q0 .825-.587 1.413T19 22zm0-2h14V10H5zM5 8h14V6H5zm0 0V6zm7 6q-.425 0-.712-.288T11 13t.288-.712T12 12t.713.288T13 13t-.288.713T12 14m-4 0q-.425 0-.712-.288T7 13t.288-.712T8 12t.713.288T9 13t-.288.713T8 14m8 0q-.425 0-.712-.288T15 13t.288-.712T16 12t.713.288T17 13t-.288.713T16 14m-4 4q-.425 0-.712-.288T11 17t.288-.712T12 16t.713.288T13 17t-.288.713T12 18m-4 0q-.425 0-.712-.288T7 17t.288-.712T8 16t.713.288T9 17t-.288.713T8 18m8 0q-.425 0-.712-.288T15 17t.288-.712T16 16t.713.288T17 17t-.288.713T16 18"/></symbol><symbol id="club" viewBox="0 0 16 16"><path fill="currentColor" d="M3 3a2 2 0 1 1 4 0 2 2 0 0 1-4 0m6.779 1.584l.042.032a2 2 0 1 0-.042-.032M6.268 6A2 2 0 1 1 9.73 7.998 2 2 0 0 1 6.268 6M2.5 6h2.67a3.01 3.01 0 0 0 .594 3H5.5a2.5 2.5 0 0 0-2.355 1.658 3.7 3.7 0 0 1-.933-.543C1.46 9.51 1 8.616 1 7.5A1.5 1.5 0 0 1 2.5 6m8 3c1.085 0 2.009.691 2.355 1.658.34-.139.654-.32.933-.543C14.54 9.51 15 8.616 15 7.5A1.5 1.5 0 0 0 13.5 6h-2.67c.11.313.17.65.17 1a3 3 0 0 1-.764 2zm1.387 1.928c.073.176.113.37.113.572 0 1.116-.459 2.01-1.212 2.615C10.047 14.71 9.053 15 8 15s-2.047-.29-2.788-.885C4.46 13.51 4 12.616 4 11.5A1.496 1.496 0 0 1 5.5 10h5a1.5 1.5 0 0 1 1.387.928"/></symbol></svg>