<svg width="18" height="19" viewBox="0 0 18 19" fill="none" xmlns="http://www.w3.org/2000/svg">
<g clip-path="url(#clip0_40_30)">
<path d="M17.9907 9.67775C17.9907 8.89933 17.9294 8.33129 17.7969 7.74222H9.17932V11.2556H14.2376C14.1357 12.1288 13.585 13.4437 12.3612 14.3272L12.344 14.4449L15.0687 16.6221L15.2575 16.6415C16.9912 14.99 17.9907 12.56 17.9907 9.67775Z" fill="#4285F4"/>
<path d="M9.17931 18.9347C11.6575 18.9347 13.7379 18.0932 15.2575 16.6415L12.3612 14.3272C11.5861 14.8848 10.5459 15.274 9.17931 15.274C6.75213 15.274 4.69209 13.6225 3.95775 11.3398L3.85011 11.3492L1.01691 13.6109L0.979858 13.7171C2.48919 16.8098 5.58948 18.9347 9.17931 18.9347Z" fill="#34A853"/>
<path d="M3.95775 11.3398C3.76399 10.7507 3.65185 10.1195 3.65185 9.46736C3.65185 8.81513 3.76399 8.18399 3.94756 7.59492L3.94243 7.46946L1.07373 5.17148L0.979868 5.21753C0.357799 6.5009 0.000854492 7.94207 0.000854492 9.46736C0.000854492 10.9927 0.357799 12.4338 0.979868 13.7171L3.95775 11.3398Z" fill="#FBBC05"/>
<path d="M9.17931 3.66069C10.9028 3.66069 12.0654 4.4286 12.7283 5.07032L15.3187 2.46152C13.7278 0.936221 11.6575 0 9.17931 0C5.58948 0 2.48919 2.12488 0.979858 5.21753L3.94755 7.59492C4.69209 5.31224 6.75213 3.66069 9.17931 3.66069Z" fill="#EB4335"/>
</g>
<defs>
<clipPath id="clip0_40_30">
<rect width="18" height="19" fill="white"/>
</clipPath>
</defs>
</svg>
