<svg width="28" height="28" viewBox="0 0 28 28" fill="none" xmlns="http://www.w3.org/2000/svg">
<path d="M5.80008 20.8C6.93341 19.9333 8.20008 19.2502 9.60008 18.7507C11.0001 18.2511 12.4667 18.0009 14.0001 18C15.5334 18 17.0001 18.2502 18.4001 18.7507C19.8001 19.2511 21.0667 19.9342 22.2001 20.8C22.9779 19.8889 23.5836 18.8555 24.0174 17.7C24.4512 16.5444 24.6676 15.3111 24.6667 14C24.6667 11.0444 23.6281 8.52755 21.5507 6.44932C19.4734 4.3711 16.9565 3.33243 14.0001 3.33332C11.0445 3.33332 8.52764 4.37243 6.44941 6.45066C4.37119 8.52888 3.33253 11.0453 3.33341 14C3.33341 15.3111 3.5503 16.5444 3.98408 17.7C4.41786 18.8555 5.02319 19.8889 5.80008 20.8ZM14.0001 15.3333C12.689 15.3333 11.5832 14.8835 10.6827 13.984C9.7823 13.0844 9.33253 11.9787 9.33342 10.6667C9.33342 9.35555 9.78364 8.24977 10.6841 7.34932C11.5845 6.44888 12.6899 5.9991 14.0001 5.99999C15.3112 5.99999 16.417 6.45021 17.3174 7.35066C18.2179 8.2511 18.6676 9.35643 18.6667 10.6667C18.6667 11.9778 18.217 13.0835 17.3174 13.984C16.4179 14.8844 15.3121 15.3342 14.0001 15.3333ZM14.0001 27.3333C12.1556 27.3333 10.4223 26.9831 8.80008 26.2827C7.17786 25.5822 5.76675 24.6324 4.56675 23.4333C3.36675 22.2333 2.41697 20.8222 1.71741 19.2C1.01786 17.5778 0.667637 15.8444 0.666748 14C0.666748 12.1555 1.01697 10.4222 1.71741 8.79999C2.41786 7.17777 3.36764 5.76666 4.56675 4.56666C5.76675 3.36666 7.17786 2.41688 8.80008 1.71732C10.4223 1.01777 12.1556 0.667545 14.0001 0.666656C15.8445 0.666656 17.5779 1.01688 19.2001 1.71732C20.8223 2.41777 22.2334 3.36755 23.4334 4.56666C24.6334 5.76666 25.5836 7.17777 26.2841 8.79999C26.9845 10.4222 27.3343 12.1555 27.3334 14C27.3334 15.8444 26.9832 17.5778 26.2827 19.2C25.5823 20.8222 24.6325 22.2333 23.4334 23.4333C22.2334 24.6333 20.8223 25.5835 19.2001 26.284C17.5779 26.9844 15.8445 27.3342 14.0001 27.3333Z" fill="#005BAC"/>
</svg>
