<svg xmlns="http://www.w3.org/2000/svg"><symbol id="bookmark-outline" viewBox="0 0 24 24"><path fill="currentColor" d="M6 19.5V4h12v15.5l-6-2.583zm1-1.55l5-2.15 5 2.15V5H7zM7 5h10z"/></symbol><symbol id="bookmark" viewBox="0 0 24 24"><path fill="#FEE500" d="M6 19.5V4h12v15.5l-6-2.583z"/></symbol><symbol id="comment" viewBox="0 0 24 24"><path fill="none" stroke="currentColor" stroke-linecap="round" stroke-linejoin="round" d="M12 21a9 9 0 1 0-9-9c0 1.488.36 2.89 1 4.127L3 21l4.873-1c1.236.639 2.64 1 4.127 1"/></symbol><symbol id="thumbs-up-fill" viewBox="0 0 32 32"><path fill="currentColor" d="M2 16h5v14H2zm21 14H9V15.197l3.042-4.563.845-5.917A2.01 2.01 0 0 1 14.868 3H15a3.003 3.003 0 0 1 3 3v6h8a4.005 4.005 0 0 1 4 4v7a7.008 7.008 0 0 1-7 7"/></symbol><symbol id="thumbs-up" viewBox="0 0 32 32"><path fill="currentColor" d="M26 12h-6V6a3.003 3.003 0 0 0-3-3h-2.133a2.01 2.01 0 0 0-1.98 1.717l-.845 5.917L8.465 16H2v14h21a7.008 7.008 0 0 0 7-7v-7a4.005 4.005 0 0 0-4-4M8 28H4V18h4zm20-5a5.006 5.006 0 0 1-5 5H10V17.303l3.958-5.937.91-6.366H17a1 1 0 0 1 1 1v8h8a2.003 2.003 0 0 1 2 2z"/></symbol></svg>